<?xml version="1.0" standalone="no"?>
<!DOCTYPE svg PUBLIC "-//W3C//DTD SVG 20010904//EN"
 "http://www.w3.org/TR/2001/REC-SVG-20010904/DTD/svg10.dtd">
<svg version="1.0" xmlns="http://www.w3.org/2000/svg"
 width="225.000000pt" height="225.000000pt" viewBox="0 0 225.000000 225.000000"
 preserveAspectRatio="xMidYMid meet">
<metadata>
Created by potrace 1.14, written by Peter Selinger 2001-2017
</metadata>
<g transform="translate(0.000000,225.000000) scale(0.100000,-0.100000)"
fill="#000000" stroke="none">
<path d="M490 2216 c0 -3 5 -17 10 -32 19 -48 27 -144 18 -197 -5 -29 -32 -95
-60 -147 -51 -97 -286 -524 -363 -660 -70 -125 -88 -182 -89 -290 -2 -169 -69
-120 719 -517 374 -188 687 -342 695 -343 8 0 197 182 420 405 237 237 398
405 387 405 -11 0 -17 8 -17 23 0 13 -10 33 -22 44 -18 15 -207 151 -270 194
-5 3 5 40 21 83 17 42 31 92 31 111 0 31 -3 35 -25 35 -31 0 -31 5 -1 45 l24
31 -31 58 -32 57 -703 350 c-387 192 -706 349 -708 349 -2 0 -4 -2 -4 -4z
m225 -303 l35 -17 0 -90 0 -91 36 65 c20 36 38 67 40 69 4 4 104 -39 104 -45
0 -1 -42 -70 -93 -152 l-93 -150 -37 19 -37 19 0 85 c0 47 -3 85 -7 85 -5 0
-25 -27 -45 -60 l-37 -60 -46 22 c-25 12 -45 25 -45 30 0 7 182 288 187 288 1
0 18 -8 38 -17z m325 -163 c44 -22 80 -44 80 -48 0 -6 -20 -40 -36 -61 -2 -2
-23 8 -48 23 -44 26 -45 26 -56 7 -16 -31 -13 -37 30 -56 22 -10 40 -20 40
-22 0 -2 -9 -22 -20 -44 l-21 -39 -42 24 c-42 25 -43 25 -55 6 -7 -11 -12 -21
-12 -23 0 -1 20 -13 44 -27 44 -23 44 -24 30 -51 -7 -15 -19 -31 -24 -34 -16
-10 -181 78 -175 93 6 16 178 292 182 292 2 0 39 -18 83 -40z m155 -77 c19 -9
35 -23 35 -30 0 -7 -18 -50 -41 -96 l-41 -82 74 73 c76 74 91 82 122 59 17
-13 17 -18 -18 -97 -20 -46 -36 -86 -36 -89 1 -3 31 27 68 67 l68 74 37 -16
c20 -8 37 -19 37 -23 0 -4 -12 -21 -28 -38 -15 -16 -71 -78 -126 -137 l-98
-107 -47 26 c-25 15 -47 28 -49 29 -2 1 8 30 22 65 14 34 25 64 23 65 -1 2
-28 -20 -60 -47 l-57 -50 -39 23 -39 23 45 100 c91 202 102 225 107 225 3 0
21 -8 41 -17z m-590 -250 c96 -48 175 -92 175 -97 0 -5 -28 -59 -62 -120 -33
-61 -73 -132 -87 -158 -14 -27 -30 -48 -35 -48 -10 0 -347 168 -359 179 -10
10 164 330 180 331 7 0 92 -39 188 -87z m1019 30 c43 -20 61 -58 47 -96 -9
-24 -13 -26 -34 -16 -12 6 -27 20 -32 32 -12 26 -43 29 -58 5 -12 -18 -4 -40
38 -97 34 -47 31 -68 -14 -111 -58 -55 -122 -60 -173 -13 -20 18 -26 103 -7
103 19 0 49 -21 49 -34 0 -17 30 -25 56 -15 32 11 38 39 16 68 -44 59 -54 91
-41 122 26 64 86 85 153 52z m261 -94 c-32 -62 -31 -69 5 -69 38 0 39 -14 2
-118 -24 -67 -26 -81 -14 -89 12 -7 12 -15 -6 -49 l-21 -41 114 -56 115 -56
-17 -35 -16 -35 -108 55 c-60 30 -112 54 -116 54 -9 0 -43 -57 -43 -71 0 -5
33 -26 74 -46 l75 -37 -16 -30 c-9 -17 -17 -32 -18 -34 -2 -2 -35 13 -74 32
-39 20 -74 36 -79 36 -7 0 -42 -62 -42 -74 0 -2 18 -11 39 -21 37 -16 39 -19
28 -44 -18 -42 -23 -44 -66 -22 l-41 21 -24 -49 -25 -48 25 -11 c27 -13 29
-20 12 -57 -8 -18 -16 -24 -27 -19 -44 18 -46 16 -106 -100 -33 -63 -56 -118
-52 -122 4 -5 161 145 348 331 321 321 341 339 354 321 8 -11 15 -27 15 -35 0
-9 -171 -186 -381 -393 l-382 -377 -28 20 c-35 24 -66 67 -74 101 -4 15 0 62
9 105 13 68 50 148 283 610 250 497 269 531 285 516 16 -14 16 -18 -7 -64z
m-420 -399 c-9 -17 -20 -30 -25 -30 -14 0 -590 289 -590 296 0 3 7 18 15 34
l15 30 300 -150 300 -150 -15 -30z m-330 16 c143 -70 262 -130 264 -132 6 -6
-21 -64 -30 -64 -4 0 -141 66 -303 146 l-294 147 15 33 16 32 36 -16 c20 -10
153 -75 296 -146z m-404 -172 c283 -141 516 -258 518 -260 6 -6 -21 -64 -30
-64 -5 0 -243 117 -528 260 l-520 259 15 31 c9 16 19 30 24 30 4 0 239 -115
521 -256z m584 -145 c-11 -21 -21 -28 -33 -25 -33 11 -582 285 -582 291 0 3 7
19 15 35 l15 30 300 -150 300 -150 -15 -31z m-617 -44 c282 -140 512 -259 512
-265 0 -9 -17 -48 -25 -58 -3 -4 -1028 507 -1039 518 -12 12 9 60 27 60 7 0
243 -115 525 -255z"/>
</g>
</svg>
